<?xml version="1.0" encoding="utf-8"?>
<!-- Generator: Adobe Illustrator 23.0.5, SVG Export Plug-In . SVG Version: 6.00 Build 0)  -->
<svg version="1.1" id="Layer_1" xmlns="http://www.w3.org/2000/svg" xmlns:xlink="http://www.w3.org/1999/xlink" x="0px" y="0px"
	 viewBox="0 0 1756 1361" style="enable-background:new 0 0 1756 1361;" xml:space="preserve">
<style type="text/css">
	.st0{opacity:0.15;fill:none;stroke:#262626;}
	.st1{opacity:0.15;fill:none;stroke:#535252;}
	.st2{opacity:0.15;fill:none;stroke:#5B5B5A;}
	.st3{opacity:0.15;fill:none;stroke:#646463;}
	.st4{opacity:0.15;fill:none;stroke:#6D6C6C;}
	.st5{opacity:0.15;fill:none;stroke:#757574;}
	.st6{opacity:0.15;fill:none;stroke:#7E7E7D;}
	.st7{opacity:0.15;fill:none;stroke:#868686;}
	.st8{opacity:0.15;fill:none;stroke:#8F8F8E;}
	.st9{opacity:0.15;fill:none;stroke:#989797;}
	.st10{opacity:0.15;fill:none;stroke:#A0A0A0;}
	.st11{opacity:0.15;fill:none;stroke:#A9A9A8;}
	.st12{opacity:0.15;fill:none;stroke:#B1B1B1;}
	.st13{opacity:0.15;fill:none;stroke:#BABABA;}
	.st14{opacity:0.15;fill:none;stroke:#C3C3C2;}
	.st15{opacity:0.15;fill:none;stroke:#CBCBCB;}
	.st16{opacity:0.15;fill:none;stroke:#D4D4D4;}
	.st17{opacity:0.15;fill:none;stroke:#DDDCDC;}
	.st18{opacity:0.15;fill:none;stroke:#E5E5E5;}
	.st19{opacity:0.15;fill:none;stroke:#EEEEEE;}
	.st20{opacity:0.15;fill:none;stroke:#F6F6F6;}
	.st21{opacity:0.15;fill:none;stroke:#FFFFFF;}
</style>
<path class="st0" d="M-296,420c118-40,205-150,326-178c17-4,35-5,49,4c10,7,16,18,22,29l63,124c30,59,72,126,138,126
	c45,0,83-32,119-59s87-48,126-25c22,13,35,36,47,58c29.2,49.6,64.1,95.6,104,137c19,20,43,41,71,40c20-1,37-12,53-21
	c41.5-23.6,86.3-40.8,133-51c12-2,25-4,36,2c10,6,15,17,19,28c32,88,51,187,121,248c14,12,32,23,50,18c11-2,19-9,27-16
	c70-63,122-144,189-210s158-120,251-106c-90.2-71.5-176.3-148-258-229c-21-22-44-50-35-79c5-14,16-24,28-32c65-41,151-18,222,10
	s148,62,222,40"/>
<path class="st1" d="M-293,429c117-40,203-148,322-178c17-4,35-6,49,2c10,6,16,17,21,27l64,114c30,54,72,116,137,115
	c44-1,81-33,118-59s85-47,124-27c23,12,39,33,54,55l2,4l33,52c11,17,25,33,38,47l39,34l11,11c13,11,27,23,40,30c7,3,13,5,20,6
	c9,1,17-2,25-6l19-10c6.7-3.8,13.8-7.2,21-10c36-10.2,72.8-17.5,110-22c13-1,26-2,37,5c8,4,13,12,16,20l5,11l22,71c8,28,18,56,32,80
	c12.6,23.1,28.4,44.3,47,63c10.3,10.6,21.7,20,34,28c9,6,20,11,32,13c7,1.1,14.1,0.8,21-1c11-2,21-9,29-16
	c27.1-25.3,52.5-52.3,76-81c35-42,67-86,105-125c64-65,150-119,240-107c-85.7-69.4-167.5-143.5-245-222c-20-20-42-48-32-76
	c4-13,15-23,27-31c62-39,143-19,212,8s142,58,213,36"/>
<path class="st2" d="M-290,437c116-39,202-145,319-177c16-4,33-7,47,1c10,5,16,15,21,24l65,105c30,49,73,106,136,103
	c43-2,80-34,116-59s84-45,123-28c26.1,11.9,48.1,31.4,63,56l34,55c12,18,26,36,42,47l41,30l13,11c14,13,28,26,41,34c6,5,12,8,18,9
	c7,2,14,1,20-2l14-8c5.6-3.2,11.7-5.5,18-7c37.2-4.1,74.6-6.7,112-8c13,0,27,1,39,8c8,6,13,13,17,22l5,12c9,25,15,52,22,78
	c9,30,20,61,36,84c18,25,36,41,54,54c11.2,8,23.3,14.7,36,20c10,5,21,8,34,9c7.4,0.6,14.8-0.1,22-2c12-3,23-9,33-17
	c26.8-24.3,51.5-50.7,74-79c32-41,63-84,99-122c60-64,143-117,228-108c-80.9-67-158-138.4-231-214c-20-20-40-47-31-74
	c4-12,15-22,26-29c59-39,137-20,203,5s136,53,204,32"/>
<path class="st3" d="M-287,446c115-39,200-143,315-177c15-5,33-7,46-1c10,5,16,14,22,22l65,95c31,45,73,97,135,92c43-3,79-34,115-60
	s82-44,122-29c26,9,47,26,65,49l3,5c13,18,24,39,36,58s28,38,45,48c15,10,28,14,45,25c4.9,3.7,9.6,7.7,14,12l42,38l15,12
	c7,2,12,2,16,0l10-6c4.4-2.1,9.2-3.1,14-3l50,4l63,3c14,1,29,2,42,11c8,6,14,14,18,23c1.9,4.2,3.6,8.6,5,13c10,27,16,56,23,84
	c8,33,21,66,40,89c21,25,42,36,61,45c11.9,5.5,24.3,9.9,37,13c11.7,3.2,23.8,4.9,36,5c8.1-0.3,16.2-1.6,24-4
	c12.5-3.7,24.4-9.4,35-17c26.5-23.2,50.6-49,72-77c30-40,59-82,93-119c57-64,136-116,217-110c-76.5-64.9-149.3-134-218-207
	c-18-19-37-45-29-70c5-13,15-22,25-29c57-37,131-20,194,2s131,50,195,29"/>
<path class="st4" d="M-284,454c113-39,199-140,311-176c15-5,32-8,46-2c9,4,15,12,21,19l66,85c31,40,73,87,134,81c42-4,78-35,114-60
	s80-43,120-31c27,8,51,23,71,47l4,4c14,19,24,41,37,62s30,40,48,49c17,9,31,9,49,20c5.3,3.5,10.4,7.6,15,12c16,14,32,30,43,43l13,14
	c5,4,8,4,11,3l6-3h9c9,3,27,8,49,12c20,4,43,7,67,10c15,2,30,4,43,14c9,6,15,15,20,25c2.2,4.2,4.2,8.6,6,13c10,29,15,60,22,91
	c9,34,23,71,45,94c24,24,47,31,68,35c12.8,3,25.9,5,39,6c12.3,1,24.7,1,37,0c8.4-0.5,16.8-1.9,25-4c13.5-4.1,26.3-10.1,38-18
	c25.8-21.9,49-46.7,69-74c29-40,57-81,89-118c54-62,128-114,205-111c-71.7-62.5-139.8-128.9-204-199c-17-19-36-44-27-68
	c4-12,13-21,23-27c55-37,125-21,185-1s125,46,187,26"/>
<path class="st5" d="M-281,463c112-39,197-138,307-176c15-5,32-9,45-4c9,3,15,10,21,17l67,76c32,35,73,77,133,69c41-5,77-36,112-61
	s80-41,119-32c31.9,6.4,60.5,23.8,81,49c16,19,26,43,39,65s32,43,52,50c18,7,32,4,51,15c6,3,11,8,17,13c17,15,34,32,44,46l11,17
	c3,5,5,7,6,6l1-1l6,4c7,5,25,14,47,21c21,6,46,11,70,15c16,3,33,7,46,17c9,7,16,17,21,27c2.3,4.9,4.3,9.9,6,15c11,30,15,64,23,96
	c8,37,24,76,49,99c27,23,53,26,75,26c26.5,0.7,52.9-1.4,79-6c9.1-1,18.1-2.7,27-5c14-5,28-10,41-18s23-19,34-30c12-14,23-28,32-42
	c27-39,53-79,83-116c51-61,121-112,194-112c-67.3-60.3-131-124.4-191-192c-16-18-33-41-25-65c4-11,13-20,23-26c51-35,118-21,175-3
	s118,41,178,22"/>
<path class="st6" d="M-279,472c112-39,197-136,305-176c14-6,30-10,43-6c9,3,16,9,22,15l67,66c32,31,74,68,132,58c41-7,76-36,111-61
	s78-41,117-33c33.4,4.1,64.3,20.1,87,45c17,21,28,46,41,69s34,45,55,51c19,6,34,0,55,10c25,17,46.4,38.8,63,64c3.6,6,6.6,12.4,9,19
	c2,7,1,9,0,10l-2,1c-1,1-1,3,2,7c4,8,22,21,45,30c22,8,48,15,74,21c16,4,34,9,48,20c9,8,16,18,22,29c2.3,4.9,4.3,9.9,6,15
	c12,33,16,68,23,102c9,40,26,82,54,104c30,23,59,21,82,17l41-9l41-8c24.9-5.4,49.1-13.8,72-25c13-8,24-18,34-29c12-13,21-27,31-41
	c25-38,49-78,77-113c47-61,113-112,182-114c-62.8-58.2-122.3-120-178-185c-14-17-30-39-22-62c3-10,12-18,21-25c49-33,112-22,166-5
	s113,37,169,18"/>
<path class="st7" d="M-276,480c111-39,195-133,301-175c14-6,30-10,43-7c9,2,15,7,21,12l69,56c32,26,73,59,130,47c40-8,75-37,109-61
	s78-40,116-35c33,5,65,12,89,38l5,5c18,21,28,48,42,72s36,47,59,52c20,4,35-5,58,5c27.1,17.2,49.4,41,65,69c3.2,6.9,5.3,14.4,6,22
	c1,7-2,11-4,12l-7,4c-2,1-3,4-2,10c3,11,20,27,44,38c22,11,50,20,78,28c17,5,35,10,49,23c10,8,18,18,24,30c2.3,5.2,4.3,10.6,6,16
	c13,35,16,72,23,109c9,42,27,87,59,108c33,23,65,17,88,9l43-17c12-4,26-9,43-13l30-8c16-5,32-10,47-18c12-7,22-17,32-28
	c12-12,21-26,29-40c24-37,46-76,72-111c45-59,106-110,171-114c-58.1-56.1-112.8-115.6-164-178c-14-17-28-38-21-59c4-10,12-18,20-24
	c46-33,106-23,157-8s107,32,160,14"/>
<path class="st8" d="M-273,489c109-39,194-131,297-175c14-6,29-11,42-9c9,2,15,6,21,10l70,46c32,22,73,49,129,36c39-9,73-38,108-62
	s77-29,114-36c38-5,75.9,10.1,100,40c20,22,30,50,44,76s38,50,62,53c22,3,38-10,61,0c8,3,14,8,20,14c21,18,41,39,48,59
	c4,11,5,19,4,25c-1,8-5,13-9,15l-11,6c-4,3-7,7-6,14c0,13,18,33,42,47c23,13,52,23,81,33c18,6,37,13,52,26c10,9,18,20,24,32
	c3,5.5,5.7,11.2,8,17c13,37,15,77,23,115c9,44,28,92,63,113c36,22,70,12,95,0l45-24c14.2-7.1,28.9-13.1,44-18l31-9c17-6,35-10,50-18
	c12-7,22-16,32-27c11-12,19-26,27-39c22-37,43-74,67-109c41-58,98-108,159-116c-53.6-53.7-104-110.4-151-170c-13-16-26-36-19-56
	c4-10,11-17,19-23c44-31,100-23,148-11s101,29,151,11"/>
<path class="st9" d="M-270,497c108-38,192-128,293-174c14-6,29-12,41-10c9,0,15,4,22,7l70,37c33,17,74,39,128,24c38-10,72-38,106-62
	s77-29,114-37c35-8,73,5,101,32l5,5c20,22,30,52,45,79s40,52,65,54c24,2,40-14,65-5c8,3,15,9,21,14c22,19,42,42,49,64
	c3,11,3,20,2,27c-1.6,8.1-6.8,15-14,19c-5,2-11,4-15,8c-6,3-10,8-11,16c-1,17,16,40,41,56c24,16,55,28,85,40c18,7,38,15,54,29
	c10.5,9.6,19,21.1,25,34c3,5.8,5.7,11.8,8,18c13,38,16,80,23,120c9,47,30,98,68,118c39,22,76,7,102-9l46-32c14.5-8.9,30-16.3,46-22
	l33-10c17-6,36-11,52-19c12-6,22-15,32-25c11-11,18-25,25-38c20-36,39-73,62-106c37-57,90-107,147-117
	c-49.2-51.9-95.3-106.6-138-164c-11-15-23-34-16-53c3-9,10-16,18-22c40-30,93-23,138-13s95,24,142,7"/>
<path class="st10" d="M-267,506c107-38,190-126,290-174c13-7,28-12,40-12c8,0,15,3,21,5l71,27c33,12,74,29,127,13
	c38-11,71-39,105-63s76-29,112-38c40.7-9.7,83.5,3.3,112,34c22,23,32,55,47,83s42,54,69,55c25,0,41-19,68-10c8,3,15,9,22,15
	c23,20,44,44,50,68c3,12,2,22-1,30c-3,10-11,17-18,21l-20,10c-7,5-12,11-14,20c-4,20,13,46,39,65c25,19,57,32,88,46
	c20,8,40,17,56,32c11.1,9.9,20.3,21.7,27,35c3.1,6.2,5.7,12.5,8,19c14,40,16,84,24,127c8,49,31,102,72,122c42,22,82,3,109-18l47-39
	c14.9-10.6,31-19.4,48-26c11-5,22-8,34-12c19-6,38-11,56-19c11-5,21-14,30-23c11-12,18-25,24-38c18-35,36-71,56-104
	c35-56,83-105,136-118c-44.8-49.4-86.5-101.5-125-156c-10-14-20-32-14-51c3-8,10-15,17-20c38-29,87-24,129-16s89,20,133,3"/>
<path class="st11" d="M-264,515c106-39,189-124,286-174c13-7,27-13,39-14c8,0,15,2,21,3l72,17c34,8,74,20,127,2c36-12,69-40,103-63
	s75-29,110-40c38-11,82-2,113,26l6,6c22,23,33,56,48,86s44,57,72,56c26-1,44-24,71-15c9,3,17,9,24,15c24,21,46,47,51,73
	c3,12,1,23-3,32c-5,11-14,19-24,24l-23,13c-8,5-15,12-18,23c-6,22,11,52,37,74c26,21,59,36,92,51c20,9,41,19,58,35
	c11.6,10.8,21.1,23.7,28,38c3.1,6.2,5.7,12.5,8,19c15,42,17,89,24,133c9,52,33,108,77,128c45,20,88-3,116-28c16-15,31-31,49-46
	c14.8-12.6,31.3-23,49-31l36-13c19-7,40-11,58-19c11-5,21-13,30-22c10-11,16-24,22-37c17-34,32-69,51-102c31-55,75-104,124-119
	c-40-47.3-77.1-97.1-111-149c-9-13-19-30-12-47c3-8,9-15,15-20c35-28,81-25,120-18s83,15,125-1"/>
<path class="st12" d="M-261,523c105-38,187-121,282-173c13-7,27-14,38-15h21l73,7c34,4,74,11,126-9c35-13,68-40,101-63s75-30,109-41
	c43.6-14.6,91.8-3.8,125,28c24,25,34,59,50,90s46,59,76,57c27-2,45-28,74-20c9,3,18,9,25,16c25,21,48,48,52,76c2,14,0,26-5,35
	c-7,13-18,22-29,27l-27,15c-10,7-19,15-23,27c-8,25,9,58,36,82c26,24,61,41,96,58c20,10,42,21,60,38c11.9,11.2,21.7,24.4,29,39
	c3.5,6.8,6.5,13.8,9,21c15,43,16,92,24,139c8,54,34,112,80,132c49,20,94-7,124-37c16-17,31-36,50-54c15.1-14.2,32.3-26,51-35l37-14
	c20-7,42-11,61-19c11-5,21-12,30-21c9-11,15-23,20-36c15-33,29-67,45-99c28-54,68-103,113-121c-35.6-44.9-68.3-92-98-141
	c-8-13-16-29-10-45c3-8,9-14,15-19c32-26,74-25,110-21s77,12,116-4"/>
<path class="st13" d="M-259,532c104-38,187-119,279-173c13-8,26-14,38-17l21-2l73-2c35-2,75,1,125-21c34-15,67-41,100-64
	s72-38,107-42c44-5,91-9,126,20l6,6c25,25,35,61,51,92s48,62,79,59c29-4,47-33,78-25c10,3,18,9,26,16c26,23,50,51,53,81
	c1.5,13.2-1.3,26.5-8,38c-7,13-20,23-33,30c-10,5-22,10-32,17c-11,7-21,17-26,30c-10,28,6,64,34,91c27,26,64,45,99,63
	c22,12,44,24,62,42c12.5,11.5,23,25,31,40c3.5,7.1,6.5,14.5,9,22c16,46,16,96,24,145c9,56,35,118,85,137c52,20,100-12,130-46
	c18-20,33-41,52-61c24.8-26.2,56.3-45.2,91-55c22-8,44-11,65-19c10.7-4.5,20.3-11.3,28-20c10-10,15-23,19-35c13-32,25-66,40-97
	c25-53,60-101,101-122c-30.9-42.8-58.9-87.6-84-134c-7-12-14-27-9-42c3-7,8-13,14-17c30-25,68-26,101-24s71,8,107-8"/>
<path class="st14" d="M-256,540c103-38,185-116,276-173c12-7,25-14,36-17c8-3,15-4,21-5l74-12c35-6,75-9,124-32c34-16,66-42,98-64
	s71-38,107-44c45-7,94-12,131,18l6,6c26,25,37,63,53,95s50,65,82,60c30-5,50-38,81-30c11,3,20,10,28,17c26,23,52,53,54,85
	c1.1,14.1-2.4,28.1-10,40c-9,15-24,25-38,33c-12,6-25,12-36,19c-13,9-24,19-30,34c-13,30,4,71,32,99c28,29,66,49,103,70
	c22,13,45,26,64,44c13,12.4,23.8,27,32,43c3.5,7.1,6.5,14.5,9,22c17,48,17,101,24,151c9,59,37,124,90,142c55,20,106-17,137-55
	c18-22,34-46,54-68c25-28.8,57.5-49.9,94-61c22-8,45-12,67-19c10.7-3.9,20.4-10.5,28-19c9-10,13-22,17-34c11-32,21-64,34-95
	c22-52,54-99,90-123c-26.5-40.7-50.2-83.1-71-127c-6-11-11-25-6-39c2-6,7-11,12-16c27-24,62-26,92-26s65,3,98-12"/>
<path class="st15" d="M-253,549c102-38,184-114,272-173c12-7,24-15,35-19l21-7l75-22c36-10,75-18,123-43c33-17,64-42,97-64
	s70-38,105-45c47-10,99-16,137,14l7,6c27,26,37,65,54,99s52,67,86,60c31-6,51-41,84-34c11,3,20,10,29,17c27,24,54,56,55,89
	c0.9,15.3-3.3,30.4-12,43c-11,16-27,28-43,36l-41,22c-14,9-27,21-34,37c-14,33,2,77,31,108s68,53,106,76c23,13,47,28,67,47
	c13,12.9,23.8,27.7,32,44c3.9,7.4,7.2,15.1,10,23c18,50,17,105,25,158c9,61,38,128,94,146c58,19,112-21,144-64c18-24,35-52,55-76
	c25.3-30.9,59-53.9,97-66c23-8,48-12,70-20c10.7-3.1,20.3-9,28-17c8-9,12-21,15-33c9-31,18-62,29-92c18-51,46-98,78-125
	c-22.1-38.3-41.4-78-58-119c-4-11-9-24-4-36c2-6,7-11,11-16c25-22,55-26,83-28s59-1,89-16"/>
<path class="st16" d="M-250,558c101-38,182-112,268-173l34-21l22-9l76-32c35-15,75-27,121-54c32-18,63-43,95-65s69-38,104-46
	c48-12,103-19,143,12c2.7,1.3,5,3.3,7,6c29,26,39,67,56,102s53,69,89,61c33-7,53-46,88-39c11,2,21,10,30,18c28,25,55,57,56,93
	c0,18-5,33-15,45c-12,17-30,30-48,39c-14,8-30,15-44,24c-16.5,9.6-29.7,23.9-38,41c-17,36-1,83,29,117s70,57,110,81
	c24,15,48,30,68,51c13.6,13.1,25.1,28.3,34,45c4.3,8.1,7.9,16.4,11,25c18,51,16,108,24,163c9,64,40,134,99,151c61,19,117-26,151-73
	c19-27,35-57,56-83c25.7-33.5,60.9-58.6,101-72c24-9,49-13,73-20c10-3,19-8,26-15c9-9,12-21,14-33c7-30,14-61,23-90
	c15-50,39-97,67-126c-17.4-36.2-32.1-73.6-44-112c-4-10-7-21-2-33c2-6,6-10,10-14c21-22,48-28,73-31s53-6,80-20"/>
<path class="st17" d="M-247,566c100-37,181-109,264-172l34-22l21-12l77-41c36-20,75-38,120-66c31-19,62-44,94-65s68-38,102-48
	c50-14,108-22,149,9l8,6c29,28,39,70,57,106s55,72,93,62c34-8,55-51,90-44c12,2,22,10,32,18c29,26,57,60,57,98c0,18-7,34-17,48
	c-13,18-33,31-53,42c-16,8-33,16-48,26c-18,11-33,25-43,44c-18,38-2,89,28,125s73,62,113,88c25,15,50,32,71,53
	c14.1,14.1,25.9,30.3,35,48c4.2,8.1,7.9,16.4,11,25c19,53,17,113,25,170c9,65,41,138,103,156c64,18,123-32,158-83c19-29,36-61,58-90
	c25.7-35.8,61.6-63,103-78c25-9,51-13,76-20c10-2,19-7,26-14c8-9,10-21,12-32c5-29,11-59,18-88c12-48,31-95,55-127
	c-13-33.8-23.3-68.6-31-104c-2-10-4-20,0-31c2.2-4.8,5.2-9.2,9-13c19-20,42-28,64-34s47-9,71-23"/>
<path class="st18" d="M-244,575c98-38,179-107,261-172l32-24l21-13l78-52c36-25,75-47,119-77c31-20,61-44,92-66
	c31.2-21,65.2-37.4,101-49c52-16,112-26,155,6l8,7c31,28,41,72,59,109s57,74,96,63c35-10,57-55,94-49c12,2,23,10,32,19
	c31,26,60,62,59,101c0,20-8,37-19,51c-15,19-37,34-58,45l-53,28c-19,13-36,27-46,47c-21,42-5,96,26,135c31,38,75,66,117,93
	c25,17,51,35,73,57c14.4,14.4,26.5,31,36,49c4.3,8.4,7.9,17.1,11,26c19,55,17,117,25,176c9,68,43,144,108,161c67,17,129-36,164-92
	c21-32,38-67,60-98c16-23,36-44,61-61c14-9,30-16,46-22c25-9,52-14,79-20c9-2,18-6,25-13c7-8,9-20,10-31l12-86c9-47,24-93,44-128
	c-8.6-31.8-14.7-64.2-18-97c-1-9-2-18,2-28c2-4.4,4.7-8.4,8-12c16-19,36-28,56-36s40-14,62-27"/>
<path class="st19" d="M-241,583c97-37,178-104,257-171l31-25l22-16l78-62c37-29,75-56,118-88c30-21,60-45,91-66
	c30.9-20.6,64.1-37.4,99-50c53-19,117-30,161,3c2.8,1.9,5.4,3.9,8,6c33,29,43,74,61,113s59,77,99,64c37-11,59-60,98-54
	c13,2,23,11,33,19c32,28,62,65,60,106c-1,20-9,38-21,53c-17,21-40,36-63,48c-19,10-39,20-57,31c-21,13-39,29-50,51
	c-23,44-8,101,24,142s77,71,121,100c26,18,52,37,74,60c15,15,28,32,38,51c4.3,8.4,7.9,17.1,11,26c20,57,18,122,25,182
	c10,71,44,149,113,166c70,17,135-41,171-101c21-34,39-72,61-105c17-25,37-48,63-65c14.7-9.8,30.4-17.9,47-24c26-9,55-14,82-20
	c9-2,18-5,24-12c7-8,8-19,9-29l7-84c5-47,16-92,32-130c-4-29.8-5.3-59.9-4-90c0-7,0-16,4-24c1.6-3.9,3.6-7.6,6-11c14-18,30-29,46-39
	s35-18,54-31"/>
<path class="st20" d="M-239,592c97-37,177-102,254-171l31-27l21-18l79-72c66-58.6,135.1-113.7,207-165c30.8-20.7,63.6-38.1,98-52
	c54-21,120-33,167,0c2.8,2.2,5.5,4.5,8,7c33,29,43,76,62,116s61,79,103,65c38-13,60-65,100-59c14,2,25,11,35,19c33,29,64,68,61,111
	c-1,21-10,40-24,56c-18,21-43,38-67,51c-21,10-42,20-62,33c-22,14-41,30-54,53c-25,47-9,108,23,152s79,74,124,106c27,18,54,38,77,62
	c15,16,29,33,39,53c4.6,8.7,8.6,17.7,12,27c20,59,17,126,25,189c9,73,45,154,116,170c74,17,141-46,179-110c21-37,39-77,62-112
	c18-27,38-52,65-70c15.2-10.4,31.7-18.8,49-25c27-10,56-15,84-20c9-2,18-4,24-11c7-7,7-18,7-28l1-82c3-45,9-90,21-131
	c0.4-27.6,3.4-55,9-82c1-7,3-15,6-22c1.7-3.5,3.8-6.8,6-10c10-17,23-30,37-41l44-35"/>
<path class="st21" d="M-236,600C35,495,180,185,446,69c58-25,133-38,181,4c35,30,45,79,64,120s63,81,106,66c40-14,63-70,104-64
	c14,2,26,11,36,20c34,29,66,69,62,114c-4,52-52,89-99,113s-98,46-123,92c-27,50-12,114,21,161s82,78,128,111s92,70,119,120
	c35,68,28,148,37,223s47,159,121,175c77,16,147-50,186-119s66-148,130-194c40-28,89-39,138-47c8-1,17-2,22-8c7-8,7-19,6-28
	c-5-71-8-143,5-212s45-138,98-185"/>
</svg>
